<svg xmlns="http://www.w3.org/2000/svg" width="119.269" height="66.865" viewBox="0 0 119.269 66.865">
    <defs>
        <style>
            .cls-1{fill:#fff}.cls-2{fill:#181c48}.cls-3{fill:#0081ae}.cls-7{fill:#e05d17}.cls-8{fill:#181d48}.cls-10{fill:#b42925}.cls-12{fill:#403976}.cls-13{fill:#403975}.cls-15{fill:#b42825}.cls-16{fill:#e05d16}.cls-19{fill:#004a76}.cls-23{fill:#0087c1}.cls-46{fill:#004974}.cls-49{fill:#f8d7c9}
        </style>
    </defs>
    <g id="Group_2439" data-name="Group 2439" transform="translate(0 .195)">
        <g id="Group_2436" data-name="Group 2436" transform="translate(0 10.324)">
            <g id="Group_2436-2" data-name="Group 2436">
                <path id="Path_1170" d="M132.328 493.052q-29.676 0-59.352.007c-.251 0-.289-.059-.289-.3q.01-27.878 0-55.755c0-.241.043-.295.291-.295q59.337.011 118.674 0c.264 0 .3.066.3.312q-.01 27.877 0 55.754c0 .222-.045.279-.275.279q-29.677-.006-59.349-.002z" class="cls-1" data-name="Path 1170" transform="translate(-72.686 -436.713)"/>
                <path id="Path_1171" d="M228.767 488.053c.253.057.3.264.333.473a2.1 2.1 0 0 1 0 .331q0 8.088-.007 16.176c0 .291.073.363.364.362q9-.013 18-.009a2.749 2.749 0 0 0 2.237-.8 3.217 3.217 0 0 0 .754-1.882 6.8 6.8 0 0 0-.111-2.334 2.456 2.456 0 0 0-2.471-2.067q-6.587-.018-13.174 0c-.291 0-.354-.072-.363-.359a1.568 1.568 0 0 1 .538-1.29c2.69-2.572 5.353-5.172 8.022-7.766a1.2 1.2 0 0 1 .937-.375c.466.02.934 0 1.486 0l-8.65 8.37h10.768a5.174 5.174 0 0 1 2.308.427 3.967 3.967 0 0 1 2.052 2.316 6.919 6.919 0 0 1 .22 3.732 4.705 4.705 0 0 1-.753 1.778c-.045.066-.122.122-.089.2s.125.042.191.042c2.6 0 5.205.005 7.808 0a2.653 2.653 0 0 0 1.056-.2 1.458 1.458 0 0 0 .843-1.118 4.088 4.088 0 0 0 .08-.9q-.008-3.253 0-6.507c0-.614.147-.767.757-.762.279 0 .636-.117.815.047s.058.532.058.809c0 2.4.031 4.8-.03 7.2a2.867 2.867 0 0 1-2.493 2.788 6.277 6.277 0 0 1-.959.067h-31.2c-.5 0-.66-.184-.66-.746v-17.412c0-.2.009-.4.014-.6a3.057 3.057 0 0 1 1.319.009z" class="cls-2" data-name="Path 1171" transform="translate(-188.536 -475.096)"/>
                <path id="Path_1172" d="M151.5 528.852l.231.01a.461.461 0 0 0 .237.025h5.3c.095 0 .2.04.281-.057a.783.783 0 0 0 .034-.356v-3.975a.98.98 0 0 1 .053-.414 4.672 4.672 0 0 1 2.72-4.2 5.007 5.007 0 0 1 2.675-.379 4.358 4.358 0 0 1 3.2 1.752 5.467 5.467 0 0 1 .948 2.355 7.641 7.641 0 0 1-.013 2.751 4.555 4.555 0 0 1-3.081 3.794 4.821 4.821 0 0 1-1.569.231h-10.578a2.46 2.46 0 0 1-.684-.09c-.031-.24.155-.346.3-.26.372.224.637-.072.958-.126-.489-.122-1.051.041-1.445-.4a.235.235 0 0 1-.071-.045.41.41 0 0 1 .2-.513.78.78 0 0 1 .304-.103z" class="cls-2" data-name="Path 1172" transform="translate(-131.295 -498.665)"/>
                <path id="Path_1173" d="M111.063 505.924c.136.029.347-.1.36.2 0 .052.319.093.5.1a2.034 2.034 0 0 1 .656.036c.056.021.126.042.132.109s-.066.135-.107.126c-.257-.053-.433.188-.688.169a.387.387 0 0 1-.293-.092c-.157-.136-.247.055-.318.184a1.4 1.4 0 0 1-.68-.218.2.2 0 0 1 .082-.141c.077-.064.183-.072.274-.153a1.991 1.991 0 0 0-.268.147c-.047.069-.145.059-.193.125l-.022.013h-.025a.439.439 0 0 0-.023.477 5.011 5.011 0 0 1-1.7 4.393 6.325 6.325 0 0 1-3.346 1.4 9.186 9.186 0 0 1-2.73-.01 5.46 5.46 0 0 1-4.706-3.49 5.726 5.726 0 0 1 .137-4.332c.216-.51.223-.49.747-.3.479.176.662.333.435 1.014a3.923 3.923 0 0 0 .668 4.071 4.28 4.28 0 0 0 2.109 1.23 6.456 6.456 0 0 0 2.623.226 4.5 4.5 0 0 0 3.66-2.046 2.687 2.687 0 0 0 .433-1.441.226.226 0 0 0 .045-.061c.016-.062.011-.13.061-.18.162-.214-.03-.4-.051-.6v-18.345c.043-.143.1-.282.139-.427a.121.121 0 0 1 .113-.055c.04-.015.072.113.12.007a.167.167 0 0 1 .11-.006c.131.1.25.027.372-.023a.768.768 0 0 1 .42.046h-.007a.779.779 0 0 1 .35.548c0 .06.012.119.012.179v14.462c0 .06-.008.119-.012.179-.179.182-.3.106-.435-.071a1.4 1.4 0 0 1-.263-.927q.011-6.565 0-13.13a2.157 2.157 0 0 0-.055-.626c-.019-.1.06-.151.133-.218-.063.026-.08.081-.122.11-.085.067-.232.04-.269.178a2.887 2.887 0 0 0-.013.452v17.018a2.738 2.738 0 0 1-.009.36 3.623 3.623 0 0 0 .009-.485v-16.958a.939.939 0 0 1 .04-.444c.138-.1.174.009.205.105a1.16 1.16 0 0 1 .027.359v13.94c0 1.172.023 2.345-.028 3.517a.754.754 0 0 0 .015.179c.006.029-.022.086.05.07a.26.26 0 0 0 .027-.013c.076-.037.005-.053-.011-.076-.158-.218-.03-.309.166-.356a.376.376 0 0 0 .329-.3c-.112-.083-.211-.134-.235.072a.131.131 0 0 1-.081.113c-.128.026-.225 0-.244-.149a5.443 5.443 0 0 0 .025-.653c.011-.258.111-.44.394-.468l.085-.013c.065-.014.155.038.184-.071.008-.051.009-.1.015-.154a1.1 1.1 0 0 1 .074-.242c.038-.076.035-.173.117-.227a1.648 1.648 0 0 0 .677.84c-.115.115-.323.057-.412.219-.031.043-.1.069-.073.143a.145.145 0 0 1 .053-.121 2.056 2.056 0 0 1 .473-.226.344.344 0 0 1 .244.11c-.09.168-.321.136-.427.333-.054.122-.025.202-.054.289z" class="cls-2" data-name="Path 1173" transform="translate(-91.341 -475.13)"/>
                <path id="Path_1174" d="M292.673 599.932a2.459 2.459 0 0 1 1.793-1.4 2.314 2.314 0 0 1 2.862 2.132c.136 1.723.029 3.451.059 5.177 0 .144-.052.184-.192.193-.711.044-.711.048-.711-.662v-4.035a3.247 3.247 0 0 0-.145-1.008 1.409 1.409 0 0 0-1.162-1.048 1.721 1.721 0 0 0-1.761.658 2.311 2.311 0 0 0-.415 1.448c0 1.456-.006 2.911 0 4.367 0 .226-.058.287-.283.284-.624-.009-.624 0-.624-.636v-4.156a3.828 3.828 0 0 0-.062-.717 1.5 1.5 0 0 0-2.324-1.053 2.854 2.854 0 0 0-.93.885.589.589 0 0 0-.079.374c0 1.666 0 3.333.007 5 0 .232-.055.31-.3.3-.608-.014-.609 0-.609-.616v-6.505c0-.125-.089-.308.182-.315.444-.01.578.04.607.307.024.214.037.43.058.671 1.428-1.677 3.487-1.317 4.029.355z" class="cls-3" data-name="Path 1174" transform="translate(-233.721 -557.819)"/>
                <path id="Path_1175" d="M235.6 592.2l2.233-2.147a2.559 2.559 0 0 0 .324-.313 1.5 1.5 0 0 1 1.646-.509l-1.661 1.579c-.531.5-1.053 1.019-1.595 1.512-.193.176-.213.275-.02.48 1.121 1.191 2.224 2.4 3.332 3.6.047.051.086.109.152.193-.547.029-1.024.1-1.45-.4-.862-1-1.8-1.947-2.7-2.914a1.684 1.684 0 0 0-.24-.227.545.545 0 0 0-.492-.046c-.13.042-.061.212-.062.323-.006.994-.01 1.988 0 2.981 0 .222-.035.314-.289.307-.612-.018-.612 0-.612-.613v-9.727c0-.11.008-.22.011-.33a1.481 1.481 0 0 1 .823.039.167.167 0 0 1 .053.094c.018 1.887 0 3.774.008 5.66v.151c.004.414.144.493.539.307z" class="cls-3" data-name="Path 1175" transform="translate(-193.577 -548.407)"/>
                <path id="Path_1176" d="M338.415 602.335a4.5 4.5 0 0 1-.419 2.042 2.926 2.926 0 0 1-2.145 1.67 3.973 3.973 0 0 1-1.818-.036 2.862 2.862 0 0 1-2.022-1.74 4.86 4.86 0 0 1 .084-4.079 2.964 2.964 0 0 1 2.626-1.687 3.536 3.536 0 0 1 1.766.274 3.228 3.228 0 0 1 1.85 2.537 5.457 5.457 0 0 1 .078 1.019z" class="cls-3" data-name="Path 1176" transform="translate(-266.52 -557.826)"/>
                <path id="Path_1177" fill="#0081af" d="M206.234 599.935c-.242-.192-.056-.31.076-.438a3.473 3.473 0 0 1 2.928-1 2.2 2.2 0 0 1 1.959 2.043 15.878 15.878 0 0 1 .054 1.894c.006 1.074.007 2.148 0 3.222 0 .13.137.363-.179.373-.375.012-.543-.078-.588-.363a1.976 1.976 0 0 0-.093-.59c-.254.189-.491.391-.752.555a3.234 3.234 0 0 1-2.453.437 1.8 1.8 0 0 1-1.407-1.476 1.784 1.784 0 0 1 .835-1.887 5.589 5.589 0 0 1 2.334-.725c.407-.052.818-.08 1.228-.11.113-.008.191-.014.187-.16a4.966 4.966 0 0 0-.122-1.4 1.464 1.464 0 0 0-1.6-1.073 2.949 2.949 0 0 0-1.73.756c-.153.128-.312.277-.531.107-.062-.051-.072-.135-.146-.165z" data-name="Path 1177" transform="translate(-172.297 -557.808)"/>
                <path id="Path_1178" d="M264.044 605.086c-.153.008-.218.123-.306.2a3.3 3.3 0 0 1-2.854.79 1.842 1.842 0 0 1-.785-3.271 4.846 4.846 0 0 1 2.064-.768c.544-.1 1.1-.117 1.646-.167.115-.011.187-.022.186-.165a4.415 4.415 0 0 0-.163-1.486 1.427 1.427 0 0 0-1.577-.98 2.758 2.758 0 0 0-1.729.755c-.324.278-.541.226-.739-.146a.185.185 0 0 1 .041-.258 3.531 3.531 0 0 1 3.06-1.089 2.132 2.132 0 0 1 1.9 1.826 4.488 4.488 0 0 1 .08.927v4.427c0 .129.112.339-.18.347-.346.009-.519-.073-.558-.318-.041-.21-.06-.41-.086-.624z" class="cls-3" data-name="Path 1178" transform="translate(-212.444 -557.807)"/>
                <path id="Path_1179" d="M185.275 586.921a.862.862 0 0 1 .136.753c-.071.075-.171.038-.257.039h-3.033c-.1 0-.222-.041-.311.058a4.923 4.923 0 0 0-.009.541v8.67c0 .356 0 .359-.342.36-.644 0-.591.045-.591-.579v-8.459c0-.69.087-.6-.615-.6h-2.621c-.124 0-.3.052-.347-.1a1.07 1.07 0 0 1 .006-.649c.016-.051.077-.057.129-.058h7.562a.609.609 0 0 1 .293.024z" class="cls-3" data-name="Path 1179" transform="translate(-150.955 -549.141)"/>
                <path id="Path_1180" fill="#0081ad" d="M364.512 591.074c0-1.675.008-3.35-.007-5.024 0-.286.087-.377.354-.339a2.641 2.641 0 0 0 .271 0 .244.244 0 0 1 .265.262v.21c0 3.32 0 6.639.007 9.959 0 .278-.083.332-.338.324-.553-.017-.553 0-.553-.553z" data-name="Path 1180" transform="translate(-291.151 -548.252)"/>
                <path id="Path_1181" d="M145.149 507.784c.02.162.147.109.241.12.081-.079.074-.247.241-.241.082.013.195-.037.228.087s-.122.121-.146.174a.391.391 0 0 1-.453.228.1.1 0 0 0-.1.091c-.009.066.01.125.084.136.208.031.127.185.15.3-.152.049-.086-.146-.192-.14-.1.039 0 .177-.1.223-.119-.1-.066-.243-.066-.365q0-8.866-.007-17.733c0-.12.094-.294-.116-.354.02-.162.146-.109.241-.12a.82.82 0 0 1 .122.536c0 4.522.006 9.044-.017 13.565 0 .34.263.5.317.782.025.127.192 0 .295 0v.182c-.085.151-.019.314-.036.47s0 .343-.221.311c-.189-.027-.163-.194-.12-.337a.294.294 0 0 0 .011-.186c-.081.071-.035.289-.195.23-.178-.065-.058-.262-.123-.436a11.988 11.988 0 0 1-.038 2.477z" class="cls-2" data-name="Path 1181" transform="translate(-126.754 -476.749)"/>
                <path id="Path_1182" fill="#e05e17" d="M450.268 482.252a.941.941 0 0 1 .792-.25c.337.019.675.007 1.013.008a3.793 3.793 0 0 1 .01 1.446.651.651 0 0 1-.706.472c-.29-.01-.582.019-.87-.006-.236-.02-.293.089-.305.286a4.109 4.109 0 0 1-.041.919 1.461 1.461 0 0 1-.007-1.179v-1.319c.093-.109.002-.273.114-.377z" data-name="Path 1182" transform="translate(-355.179 -470.615)"/>
                <path id="Path_1183" d="M413.684 521.379c-.2-.028-.519.112-.673-.054s-.052-.479-.04-.725c.013-.271-.085-.55.091-.812a.608.608 0 0 1 .564-.329c.35.013.7.008 1.052 0 .155 0 .215.053.213.207-.006.38.006.761 0 1.141a.6.6 0 0 1-.583.572c-.195.004-.386 0-.624 0z" class="cls-7" data-name="Path 1183" transform="translate(-327.402 -498.659)"/>
                <path id="Path_1184" d="M392.461 482.033c0 .379-.009.759-.011 1.138 0 .555-.22.77-.784.773l-1.139.008v-1.229c0-.493.2-.7.681-.7.419 0 .838.008 1.257.012z" class="cls-8" data-name="Path 1184" transform="translate(-310.632 -470.636)"/>
                <path id="Path_1185" d="M407.583 461.4a6.82 6.82 0 0 1 1.138-.024c.2 0 .261-.062.252-.257-.014-.33-.012-.662 0-.993a.583.583 0 0 1 .657-.645c.341-.006.683 0 1.024 0 .16 0 .239.031.232.214-.013.35 0 .7-.006 1.053a.581.581 0 0 1-.641.632 12.83 12.83 0 0 0-1.292.028c-.267.193-.573.084-.861.1-.171.004-.361.042-.503-.108z" class="cls-3" data-name="Path 1185" transform="translate(-323.401 -453.752)"/>
                <path id="Path_1186" fill="#b52925" d="M390.511 498.833c0-.411.027-.824-.008-1.232a.689.689 0 0 1 .7-.687c.411 0 .822-.006 1.232-.009l.023.026a.092.092 0 0 1-.017.1c0 .37-.025.74-.01 1.108a.649.649 0 0 1-.7.7c-.408-.034-.82-.01-1.23-.011z" data-name="Path 1186" transform="translate(-310.612 -481.776)"/>
                <path id="Path_1187" d="M415.009 545.723c0 .4 0 .8-.008 1.2-.007.473-.211.674-.68.677h-1.022c-.153 0-.214-.045-.21-.205.009-.36-.008-.722.006-1.082a.556.556 0 0 1 .634-.6c.331 0 .662-.012.992 0 .206.009.255-.074.255-.262a6.324 6.324 0 0 1 .021-1.046.25.25 0 0 1 .1.234 2.339 2.339 0 0 1-.088 1.084z" class="cls-3" data-name="Path 1187" transform="translate(-327.522 -517.344)"/>
                <path id="Path_1188" d="M392.427 527.079a9.948 9.948 0 0 1 .018 1.318.638.638 0 0 1-.64.593c-.33.013-.661 0-.991 0-.195 0-.29-.083-.285-.289.008-.33 0-.661 0-.991a.565.565 0 0 1 .638-.627h1.262z" class="cls-10" data-name="Path 1188" transform="translate(-310.634 -504.364)"/>
                <path id="Path_1189" d="M437.426 543.563a.46.46 0 0 1-.451.343c-.39.013-.781 0-1.171.007-.166 0-.2-.064-.2-.212.009-.36 0-.72 0-1.081a.639.639 0 0 1 .628-.629c.35 0 .7.007 1.052 0 .178-.005.254.049.247.236-.013.319-.008.64-.011.96-.085.107-.003.265-.094.376z" class="cls-7" data-name="Path 1189" transform="translate(-344.381 -515.525)"/>
                <path id="Path_1190" fill="#b42826" d="M429.2 504.471c.2.025.523-.111.679.048s.036.477.048.725c.007.15-.009.3 0 .451.038.484-.278.645-.67.679-.319.028-.642 0-.964 0-.161 0-.283-.065-.278-.233a4.712 4.712 0 0 1 .061-1.226.533.533 0 0 1 .563-.448c.17.006.34.004.561.004z" data-name="Path 1190" transform="translate(-338.688 -487.417)"/>
                <path id="Path_1191" d="M412.905 506.363c0-.39.005-.78.01-1.17a.582.582 0 0 1 .643-.647c.351 0 .7.007 1.052 0 .174-.006.225.058.221.225-.009.34 0 .681 0 1.021a.586.586 0 0 1-.658.641c-.331 0-.662.008-.992 0a.218.218 0 0 0-.26.179.12.12 0 0 1-.062-.1.241.241 0 0 1 .005-.079.205.205 0 0 1 .041-.07z" class="cls-12" data-name="Path 1191" transform="translate(-327.347 -487.491)"/>
                <path id="Path_1192" d="M346.648 504.466c.2.033.523-.117.665.059.119.147.034.459.038.7v.42c0 .507-.2.714-.7.719-.33 0-.661-.008-.991 0-.187.007-.241-.063-.234-.244.013-.33 0-.661 0-.991.007-.455.211-.66.656-.665l.566.002z" class="cls-8" data-name="Path 1192" transform="translate(-276.868 -487.414)"/>
                <path id="Path_1193" d="M429.264 489.435c.2.027.517-.115.675.051s.037.478.048.725c.007.17 0 .34-.006.51-.022.415-.194.6-.609.612-.36.014-.721 0-1.082 0-.153 0-.218-.051-.214-.207.008-.35-.01-.7.014-1.05.033-.5.21-.644.706-.647z" class="cls-8" data-name="Path 1193" transform="translate(-338.743 -476.159)"/>
                <path id="Path_1194" d="M430.011 475.236c0 .19.008.381 0 .571a.522.522 0 0 1-.529.536c-.39.013-.781 0-1.172.005-.149 0-.189-.063-.186-.2.007-.35-.008-.7.01-1.051.024-.463.241-.655.7-.658.31 0 .622.011.932-.005.205-.011.264.071.252.261s0 .36 0 .54z" class="cls-13" data-name="Path 1194" transform="translate(-338.777 -464.952)"/>
                <path id="Path_1195" d="M428.148 521.408c0-.42-.017-.839-.007-1.258a.6.6 0 0 1 .679-.653c.32 0 .641.006.961-.006.173-.006.258.035.251.229-.013.369 0 .74-.009 1.11a.543.543 0 0 1-.589.572c-.43.008-.86 0-1.291 0z" class="cls-12" data-name="Path 1195" transform="translate(-338.788 -498.683)"/>
                <path id="Path_1196" d="M503.888 506.417c-.2-.035-.528.116-.67-.062-.119-.149-.037-.46-.04-.7 0-.18-.011-.362 0-.541a.565.565 0 0 1 .629-.578c.351 0 .7.009 1.054 0 .189-.007.243.061.236.242-.012.32 0 .642-.006.963-.014.488-.22.68-.711.681z" class="cls-3" data-name="Path 1196" transform="translate(-394.947 -487.484)"/>
                <path id="Path_1197" d="M386.264 519.111a7.378 7.378 0 0 1-1.08.022c-.167 0-.231.052-.227.224q.014.526 0 1.053a.558.558 0 0 1-.621.611c-.351.006-.7-.008-1.053.005-.18.007-.217-.064-.213-.226.01-.361 0-.722.005-1.083a.537.537 0 0 1 .581-.583c.441-.017.883.027 1.323-.025a1.661 1.661 0 0 1 1.285.002z" class="cls-3" data-name="Path 1197" transform="translate(-305.048 -498.301)"/>
                <path id="Path_1198" d="M460.067 512.026c0 .42.021.841.01 1.261a.54.54 0 0 1-.534.57 11.328 11.328 0 0 1-1.2.024c-.121 0-.184-.037-.182-.172.006-.4-.016-.8.01-1.2a.475.475 0 0 1 .4-.488 4.119 4.119 0 0 1 1.496.005z" class="cls-8" data-name="Path 1198" transform="translate(-361.262 -493.04)"/>
                <path id="Path_1199" d="M474.606 521.4c-.39 0-.78 0-1.17.012-.163 0-.235-.041-.229-.217.012-.359 0-.72.009-1.08a.581.581 0 0 1 .626-.613c.35-.008.7.005 1.051 0 .161 0 .208.06.206.21-.006.39 0 .78 0 1.17a.462.462 0 0 1-.238.417 1.038 1.038 0 0 1-.255.101z" class="cls-13" data-name="Path 1199" transform="translate(-372.529 -498.69)"/>
                <path id="Path_1200" d="M422.529 527.086c0 .421.007.842 0 1.263a.549.549 0 0 1-.615.612H420.8c-.131 0-.168-.035-.164-.169.012-.381 0-.762.011-1.143a.53.53 0 0 1 .592-.569c.431 0 .862.005 1.293.009z" class="cls-3" data-name="Path 1200" transform="translate(-333.174 -504.366)"/>
                <path id="Path_1201" d="M405.588 483.823c0-.39.005-.78.011-1.17a.569.569 0 0 1 .647-.644h1.051c.141 0 .195.044.192.189-.007.36 0 .72 0 1.08a.611.611 0 0 1-.391.615c-.464.05-.93.008-1.395.022-.064-.001-.11-.02-.115-.092z" class="cls-3" data-name="Path 1201" transform="translate(-321.907 -470.621)"/>
                <path id="Path_1202" d="M413 536.487c0-.38.011-.759.014-1.138 0-.495.176-.68.658-.69.339-.008.678.005 1.017-.007.2-.007.258.068.25.26-.014.34 0 .68-.008 1.02a.541.541 0 0 1-.562.565 11.731 11.731 0 0 1-1.377-.014z" class="cls-10" data-name="Path 1202" transform="translate(-327.453 -510.032)"/>
                <path id="Path_1203" d="M398.75 536.522c-.161-.022-.48.117-.636-.043s-.038-.476-.047-.723c-.007-.21 0-.42.005-.63a.405.405 0 0 1 .342-.41c.458-.045.923-.029 1.385-.031.078 0 .184.018.177.119a4.575 4.575 0 0 1-.078 1.384.47.47 0 0 1-.492.335c-.189.001-.38-.001-.656-.001z" class="cls-7" data-name="Path 1203" transform="translate(-316.252 -510.056)"/>
                <path id="Path_1204" d="M398.081 521.426c0-.437 0-.875.012-1.313a.516.516 0 0 1 .435-.557 7.268 7.268 0 0 1 1.452.013c0 .41 0 .82-.006 1.23a.57.57 0 0 1-.635.629c-.417.007-.839 0-1.258-.002z" class="cls-3" data-name="Path 1204" transform="translate(-316.287 -498.711)"/>
                <path id="Path_1205" d="M443.956 476.417c-.752 0-.752 0-.752-.739 0-.211-.005-.422.011-.632a.488.488 0 0 1 .491-.506c.411-.02.823-.006 1.235-.012.12 0 .155.054.153.164 0 .391.011.783-.007 1.174a.546.546 0 0 1-.589.55c-.18.005-.361.001-.542.001z" class="cls-3" data-name="Path 1205" transform="translate(-350.068 -465.022)"/>
                <path id="Path_1206" fill="#b52926" d="M398.162 476.324a10.7 10.7 0 0 1-.005-1.5c.012-.232.295-.419.624-.425.391-.008.783 0 1.174-.006.088.079.063.185.059.281a7.374 7.374 0 0 1-.041 1.274.542.542 0 0 1-.562.37c-.419-.006-.839 0-1.258 0z" data-name="Path 1206" transform="translate(-316.326 -464.921)"/>
                <path id="Path_1207" d="M444.344 519.548c.238 0 .552-.092.695.025s.037.451.048.689c.008.19.009.381 0 .571a.558.558 0 0 1-.588.586c-.371.01-.742 0-1.113.005-.144 0-.193-.048-.189-.19.008-.371-.005-.742.007-1.112.014-.407.2-.579.6-.589h.541z" class="cls-3" data-name="Path 1207" transform="translate(-350.062 -498.7)"/>
                <path id="Path_1208" d="M377.466 497.081c0 .38-.005.761-.014 1.141-.012.459-.213.657-.667.661-.341 0-.682-.006-1.023 0-.155 0-.212-.045-.208-.2.012-.381 0-.762.016-1.142a.517.517 0 0 1 .552-.544c.31-.015.62-.016.93-.023.129.07.318-.093.414.107z" class="cls-3" data-name="Path 1208" transform="translate(-299.422 -481.826)"/>
                <path id="Path_1209" d="M405.649 542.315a.6.6 0 0 1 .6-.352c.406 0 .811-.014 1.217-.021h-.007a6.729 6.729 0 0 1 0 1.51.5.5 0 0 1-.538.422c-.419.008-.837 0-1.256-.009-.117-.183-.052-.386-.058-.579-.01-.287-.01-.575 0-.862a.248.248 0 0 1 .042-.109z" class="cls-12" data-name="Path 1209" transform="translate(-321.912 -515.487)"/>
                <path id="Path_1210" d="M391.83 513.865h-1.286a6.912 6.912 0 0 1-.016-1.343.463.463 0 0 1 .4-.483 6.053 6.053 0 0 1 1.377-.047.161.161 0 0 1 .12.105c0 .381.009.762 0 1.143a.557.557 0 0 1-.595.625z" class="cls-12" data-name="Path 1210" transform="translate(-310.614 -493.055)"/>
                <path id="Path_1211" d="M398.076 505.1c.053-.392.223-.555.6-.562.351-.006.7.005 1.052 0 .159 0 .237.027.231.211-.013.37 0 .741-.006 1.112a.534.534 0 0 1-.571.56c-.431.007-.862 0-1.293.006a7.307 7.307 0 0 1-.013-1.327z" class="cls-3" data-name="Path 1211" transform="translate(-316.267 -487.485)"/>
                <path id="Path_1212" d="M428.206 459.846a.492.492 0 0 1 .5-.36c.37 0 .74.007 1.109-.005.175-.006.222.057.216.223a9.017 9.017 0 0 0 0 1.078.631.631 0 0 1-.651.627c-.389-.006-.779 0-1.168.006-.093-.088-.063-.2-.058-.308a5.686 5.686 0 0 1 .052-1.261z" class="cls-7" data-name="Path 1212" transform="translate(-338.793 -453.758)"/>
                <path id="Path_1213" d="M488.332 498.014c.036-.225-.063-.5.06-.755a.555.555 0 0 1 .509-.322c.35-.014.7 0 1.053-.008.154 0 .223.058.222.207 0 .411 0 .822-.014 1.232a.481.481 0 0 1-.514.48c-.371.007-.742 0-1.113.006-.156 0-.215-.04-.205-.2.011-.2.002-.401.002-.64z" class="cls-7" data-name="Path 1213" transform="translate(-383.849 -481.793)"/>
                <path id="Path_1214" d="M375.624 513.838c0-.426 0-.852-.007-1.279a.529.529 0 0 1 .38-.549 4.541 4.541 0 0 1 1.547.021c0 .309-.011.619-.007.928a.993.993 0 0 1-.345.875 1.213 1.213 0 0 1-.648.053 2.548 2.548 0 0 1-.92-.049z" class="cls-7" data-name="Path 1214" transform="translate(-299.47 -493.042)"/>
                <path id="Path_1215" d="M413.183 489.886a.358.358 0 0 1 .382-.249c.4 0 .8.006 1.2-.007.193-.006.236.072.229.248-.012.32.009.641-.006.961-.018.387-.211.67-.619.64a9.571 9.571 0 0 0-1.051 0c-.2.007-.258-.069-.25-.261.014-.32.005-.64.006-.961.065-.116.026-.262.109-.371z" class="cls-15" data-name="Path 1215" transform="translate(-327.507 -476.328)"/>
                <path id="Path_1216" d="M467.118 498.843c-.381 0-.762 0-1.143.014-.171.006-.2-.068-.194-.213.009-.361.023-.723 0-1.082a.587.587 0 0 1 .594-.621c.35-.018.7 0 1.053-.007.146 0 .2.061.2.194 0 .431-.006.862-.016 1.292a.3.3 0 0 1-.241.318c-.071.07-.182.036-.253.105z" class="cls-15" data-name="Path 1216" transform="translate(-366.97 -481.795)"/>
                <path id="Path_1217" d="M445.053 506.12a.606.606 0 0 1-.594.323c-.33-.006-.661-.008-.991 0-.174 0-.255-.043-.248-.235.014-.37 0-.74.009-1.11a.515.515 0 0 1 .55-.539c.42 0 .84 0 1.261.007.118.163.056.349.062.524.009.29.005.58 0 .87a.254.254 0 0 1-.049.16z" class="cls-12" data-name="Path 1217" transform="translate(-350.079 -487.504)"/>
                <path id="Path_1218" d="M420.693 543.941l-.012-1.307c.007-.208.035-.4.262-.5a3.929 3.929 0 0 1 1.427-.073c.165 0 .2.14.195.284v1.114a.284.284 0 0 1-.033.108.537.537 0 0 1-.548.373c-.433.007-.862.003-1.291.001z" class="cls-2" data-name="Path 1218" transform="translate(-333.206 -515.562)"/>
                <path id="Path_1219" d="M399.956 491.1l-.241.242a5.517 5.517 0 0 1-1.283.058.375.375 0 0 1-.288-.06h.006c0-.32 0-.64-.013-.959a.957.957 0 0 1 .254-.845.377.377 0 0 1 .276-.064h1.078c.111 0 .254 0 .255.143a5.65 5.65 0 0 1-.044 1.485z" class="cls-16" data-name="Path 1219" transform="translate(-316.326 -476.21)"/>
                <path id="Path_1220" d="M407.453 512.037l.023.109c0 .4.006.8 0 1.2a.474.474 0 0 1-.427.492 9.426 9.426 0 0 1-1.4-.009 4.466 4.466 0 0 1 0-1.47.364.364 0 0 1 .357-.349 3.336 3.336 0 0 1 1.447.027z" class="cls-2" data-name="Path 1220" transform="translate(-321.904 -493.034)"/>
                <path id="Path_1221" d="M360.569 504.909a.426.426 0 0 1 .442-.362c.409-.012.819 0 1.228-.01.133 0 .168.044.165.173-.011.4 0 .8-.013 1.2a.412.412 0 0 1-.308.451 13.584 13.584 0 0 1-1.4.023c-.1 0-.161-.041-.159-.137a5.505 5.505 0 0 1 .045-1.338z" class="cls-2" data-name="Path 1221" transform="translate(-288.155 -487.488)"/>
                <path id="Path_1222" d="M383.119 489.911a.444.444 0 0 1 .467-.261c.446.013.893.01 1.34.014 0 .431 0 .862.006 1.292a.536.536 0 0 1-.367.529 5.979 5.979 0 0 1-1.346.043.134.134 0 0 1-.148-.124 5.46 5.46 0 0 1 .048-1.493z" class="cls-16" data-name="Path 1222" transform="translate(-305.028 -476.343)"/>
                <path id="Path_1223" d="M406.1 467.128h1.364a7.411 7.411 0 0 1 .009 1.4.437.437 0 0 1-.418.425 5.381 5.381 0 0 1-1.275.046.145.145 0 0 1-.159-.145 5.879 5.879 0 0 1 .041-1.362c.022-.263.205-.341.438-.364z" class="cls-12" data-name="Path 1223" transform="translate(-321.913 -459.483)"/>
                <path id="Path_1224" d="M384.93 504.558c0 .446.013.893.005 1.339a.436.436 0 0 1-.346.483 6.4 6.4 0 0 1-1.37.038.145.145 0 0 1-.15-.156 5.9 5.9 0 0 1 .043-1.337.5.5 0 0 1 .54-.367h1.282z" class="cls-12" data-name="Path 1224" transform="translate(-305.036 -487.504)"/>
                <path id="Path_1225" d="M422.53 468.429a.477.477 0 0 1-.5.374c-.379 0-.758-.006-1.137.006-.161 0-.2-.052-.2-.205q.014-.538 0-1.077a.533.533 0 0 1 .373-.555 6.181 6.181 0 0 1 1.343-.039.144.144 0 0 1 .153.154 6.677 6.677 0 0 1-.032 1.342z" class="cls-15" data-name="Path 1225" transform="translate(-333.217 -459.322)"/>
                <path id="Path_1226" d="M445.07 489.659q0 .59.007 1.18c0 .463-.155.63-.605.631-.341 0-.682-.006-1.023 0-.155 0-.212-.042-.206-.2.014-.38.012-.76.017-1.141a1.839 1.839 0 0 0 .226-.381c0-.107.079-.1.144-.106a10.507 10.507 0 0 1 1.44.017z" class="cls-15" data-name="Path 1226" transform="translate(-350.096 -476.326)"/>
                <path id="Path_1227" fill="#0088c2" d="M185.2 586.844q-3.8 0-7.594.006c-.119 0-.305-.077-.347.079a1.348 1.348 0 0 0 0 .565c.022.121.169.073.263.074.995 0 1.989.012 2.983 0 .275 0 .354.069.353.349-.01 2.972 0 5.943-.013 8.914 0 .293.056.443.376.383a.435.435 0 0 1 .15 0c.277.047.33-.082.329-.338q-.012-4.412 0-8.824a.583.583 0 0 1 .038-.352c0 .591.012 1.183.012 1.774v7.491c0 .1.044.222-.051.314-.04.005.012.008-.028.01-.289.014-.647.122-.845-.039-.177-.144-.055-.51-.055-.778q-.006-4.243 0-8.487c0-.322 0-.323-.326-.323-1 0-2.008-.007-3.012.005-.226 0-.315-.059-.281-.285.03-.194-.052-.4.044-.588q3.833 0 7.667.007c.11-.001.237-.048.337.043z" data-name="Path 1227" transform="translate(-150.883 -549.063)"/>
                <path id="Path_1228" fill="#eb889f" d="M142.041 507.511a.194.194 0 0 1-.04.011c0-.28-.012-.561-.012-.842q0-9.284-.006-18.567c0-.287.093-.379.36-.345a3.356 3.356 0 0 1 .971.063 3.119 3.119 0 0 1-.828.032c-.2-.039-.345.009-.362.265-.009.137-.041.275-.04.415v17.972a2.078 2.078 0 0 1-.043.996z" data-name="Path 1228" transform="translate(-124.564 -474.929)"/>
                <path id="Path_1229" d="M142.2 507.688v-19.343c0-.277.067-.367.345-.344.309.025.622.006.933.007a.114.114 0 0 1 .019.051l-.495.015a.258.258 0 0 1-.3 0h-.12a.037.037 0 0 1-.063 0h-.119c-.113.094-.011.26-.12.355v18.556a.473.473 0 0 1 0 .482c-.029.074.037.178-.08.221z" class="cls-19" data-name="Path 1229" transform="translate(-124.724 -475.107)"/>
                <path id="Path_1230" fill="#fdeee5" d="M177.095 586.8c-.1.846-.1.846.741.846h2.471c.45 0 .39-.069.39.4v8.883c0 .259.043.388.336.349a4.016 4.016 0 0 1 .572 0 2.392 2.392 0 0 1-.827.049c-.1.007-.134-.069-.134-.159v-.241c0-2.959 0-5.918.007-8.877 0-.293-.082-.369-.37-.364-.984.018-1.967 0-2.951.012-.232 0-.346-.058-.3-.3.025-.192-.091-.41.065-.598z" data-name="Path 1230" transform="translate(-150.787 -549.075)"/>
                <path id="Path_1231" d="M145.867 551.871v-2.79c.184.218.067.473.159.734.142-.135.038-.3.113-.44.195.125.3.259.125.478a.13.13 0 0 0 .013.189.144.144 0 0 0 .108.04c.082-.024.08-.1.086-.172.015-.194-.058-.406.115-.568l.04.322c.006.214.039.427.025.641l-.06.241a.106.106 0 0 0 0 .181c-.036.2-.148.093-.25.051-.1-.14-.19-.3-.276-.454a.373.373 0 0 0 .276.454c-.415.048-.43.341-.418.668.005.14.059.296-.056.425z" class="cls-2" data-name="Path 1231" transform="translate(-127.472 -520.836)"/>
                <path id="Path_1232" fill="#ed95aa" d="M159.848 542.849c-.068.13-.191.088-.295.088h-5.093a.833.833 0 0 1-.468-.073c1.807 0 3.614-.011 5.421.005.316 0 .377-.092.374-.386-.014-1.324 0-2.649 0-3.974 0-.113-.048-.242.061-.339a.354.354 0 0 1 .027.205v4.268a.33.33 0 0 1-.027.206z" data-name="Path 1232" transform="translate(-133.554 -512.668)"/>
                <path id="Path_1233" fill="#f6b888" d="M423.643 463.953c0-.41-.011-.82 0-1.23 0-.17-.057-.226-.225-.223-.41.007-.821 0-1.231 0 .025-.155.149-.1.237-.1.29-.006.58-.017.868 0 .25.017.364-.042.338-.323a8.272 8.272 0 0 1 0-.9c0-.092-.028-.211.117-.236q0 .785.006 1.57c0 .395.006.79 0 1.184-.004.089.056.223-.11.258z" data-name="Path 1233" transform="translate(-334.331 -454.846)"/>
                <path id="Path_1234" d="M238.084 592.472c-.094.282-.32.111-.482.127-.142.014-.113-.137-.113-.23q0-3.045.009-6.089c.154.073.075.212.075.316.006 1.856 0 3.712 0 5.568 0 .39 0 .39.407.333z" class="cls-23" data-name="Path 1234" transform="translate(-196.061 -548.683)"/>
                <path id="Path_1235" fill="#fcede4" d="M237.932 592.334c-.4.138-.436.116-.436-.275v-5.6c0-.115.046-.241-.048-.345-.04-.022-.039-.041 0-.057.173.053.1.2.1.3 0 1.863.011 3.726 0 5.588-.002.32.086.435.384.389z" data-name="Path 1235" transform="translate(-196.01 -548.521)"/>
                <path id="Path_1236" fill="#f8cfae" d="M381.977 490.689c-.006.441 0 .882-.022 1.323-.009.206.072.252.261.247.4-.011.8 0 1.2 0-.037.159-.168.113-.267.114-.407.006-.815 0-1.222 0-.1-.166-.286-.033-.414-.106.284.032.349-.11.333-.368-.021-.319-.008-.64 0-.959.003-.097-.046-.24.131-.251z" data-name="Path 1236" transform="translate(-303.885 -477.121)"/>
                <path id="Path_1237" fill="#e5a7c0" d="M378.675 507.607l-1.547-.021c.025-.159.153-.1.239-.1.32-.007.641-.011.961 0 .186.007.246-.063.24-.244-.011-.31-.006-.62 0-.93 0-.091-.049-.205.074-.266.03.38.007.76.012 1.139 0 .328 0 .322.317.331a8.192 8.192 0 0 1 1.165.028c-.209.134-.44.046-.661.06-.266.015-.533.003-.8.003z" data-name="Path 1237" transform="translate(-300.601 -488.617)"/>
                <path id="Path_1238" fill="#f8c5a5" d="M401.358 490.92c0-.441 0-.883.014-1.324.008-.2-.067-.254-.259-.248-.361.011-.722 0-1.084-.005a.068.068 0 0 1 0-.108h1.376l.07.107.012.017c0 .435 0 .869-.009 1.3.002.102.043.235-.12.261z" data-name="Path 1238" transform="translate(-317.727 -476.032)"/>
                <path id="Path_1239" fill="#eea5bc" d="M405.389 471.649a15.5 15.5 0 0 0-.018-1.555v-1.169c0-.093-.042-.2.066-.274a10.748 10.748 0 0 1 .018 1.253c0 .171.054.219.222.22a7.185 7.185 0 0 1 1.132.023 2.913 2.913 0 0 1-1.028.052c-.218 0-.3.054-.29.285.019.308.008.618 0 .928.001.088.055.214-.102.237z" data-name="Path 1239" transform="translate(-321.741 -460.623)"/>
                <path id="Path_1240" fill="#004d7a" d="M177.239 542.6c-.021-1.51-.024-3.019 0-4.529v-.149l.051-.085v4.633a.13.13 0 0 1-.051.13z" data-name="Path 1240" transform="translate(-150.945 -512.415)"/>
                <path id="Path_1241" fill="#004a75" d="M423.292 543.508c0-.381-.017-.762 0-1.141.009-.237-.086-.333-.311-.325a6.3 6.3 0 0 0-1.254.059.414.414 0 0 1 .354-.111h1.191a.145.145 0 0 1 .1.16v1.255a.1.1 0 0 1-.08.103z" data-name="Path 1241" transform="translate(-333.987 -515.523)"/>
                <path id="Path_1242" fill="#f9dbcd" d="M375.644 519.44h1.568a.125.125 0 0 1-.143.119h-1.288c-.081.001-.133-.031-.137-.119z" data-name="Path 1242" transform="translate(-299.49 -498.644)"/>
                <path id="Path_1243" fill="#f9d9c5" d="M398.181 496.895h1.571c-.029.168-.165.119-.264.12-.432.005-.863 0-1.295 0z" data-name="Path 1243" transform="translate(-316.362 -481.767)"/>
                <path id="Path_1244" d="M360.483 506.018c0 .409.008.818 0 1.226 0 .169.059.227.227.224.429-.008.858 0 1.287 0a.636.636 0 0 1-.484.081 5.118 5.118 0 0 1-1.092-.041 7 7 0 0 1 .015-1.472z" class="cls-19" data-name="Path 1244" transform="translate(-288.07 -488.597)"/>
                <path id="Path_1245" fill="#1a74af" d="M384.586 507.524c-.43 0-.859 0-1.289.009-.167 0-.23-.046-.224-.22.015-.429.013-.858.018-1.287a.1.1 0 0 1 .037-.006c0 .392.013.783 0 1.174-.006.2.05.286.269.279.4-.014.8 0 1.205 0a.214.214 0 0 1-.016.051z" data-name="Path 1245" transform="translate(-305.051 -488.598)"/>
                <path id="Path_1246" fill="#1b71ac" d="M406.992 470.1c-.38 0-.761-.014-1.141-.005-.177 0-.251-.039-.244-.232.016-.42.01-.84.012-1.26l.045-.017c0 .4.014.8 0 1.2 0 .192.051.266.252.26.379-.011.758 0 1.137 0z" data-name="Path 1246" transform="translate(-321.921 -460.571)"/>
                <path id="Path_1247" fill="#f9e4d6" d="M458.161 483.491l-.01-1.446a.117.117 0 0 1 .123.135v1.164c-.001.079-.029.134-.113.147z" data-name="Path 1247" transform="translate(-361.257 -470.65)"/>
                <path id="Path_1248" fill="#4a8caf" d="M401.384 519.325l1.383.014a6.426 6.426 0 0 1-1.444.055l-1.452-.013a5.372 5.372 0 0 1 1.063-.044c.109-.007.218-.01.327-.014a.1.1 0 0 1 .062-.031.1.1 0 0 1 .061.033z" data-name="Path 1248" transform="translate(-317.628 -498.534)"/>
                <path id="Path_1249" fill="#eaa8bd" d="M450.5 506.143l-.006-.09a9.229 9.229 0 0 0 .03-1.109.858.858 0 0 1 .027-.355c.132.242.04.5.059.753.015.2.005.4 0 .6-.005.08.023.188-.11.201z" data-name="Path 1249" transform="translate(-355.523 -487.527)"/>
                <path id="Path_1250" fill="#e289a0" d="M427.895 543.507a3.724 3.724 0 0 0-.023-1.523c.107 0 .136.061.136.151v1.309a.079.079 0 0 1-.092.088.034.034 0 0 1-.021-.025z" data-name="Path 1250" transform="translate(-338.59 -515.522)"/>
                <path id="Path_1251" fill="#eba7bf" d="M405.457 543.44a.062.062 0 0 1 .011.037 10.065 10.065 0 0 0-.029 1.159 1 1 0 0 1-.024.354c-.131-.123-.056-.28-.062-.421-.012-.3-.008-.6 0-.894.002-.086-.053-.211.104-.235z" data-name="Path 1251" transform="translate(-321.72 -516.612)"/>
                <path id="Path_1252" fill="#eb8ba1" d="M360.321 506.088l-.015 1.472a3.529 3.529 0 0 1 .015-1.472z" data-name="Path 1252" transform="translate(-287.955 -488.65)"/>
                <path id="Path_1253" fill="#004b76" d="M461.286 511.955l-1.5-.008.072-.056a6.971 6.971 0 0 1 1.432.008.064.064 0 0 1-.004.056z" data-name="Path 1253" transform="translate(-362.481 -492.969)"/>
                <path id="Path_1254" fill="#1b72ae" d="M405.63 545.1v-1.259c0-.088-.019-.182.057-.254v1.508l-.028.008z" data-name="Path 1254" transform="translate(-321.934 -516.723)"/>
                <path id="Path_1255" fill="#ec8da2" d="M461.5 511.783l-1.432-.008a3.415 3.415 0 0 1 1.432.008z" data-name="Path 1255" transform="translate(-362.696 -492.853)"/>
                <path id="Path_1256" d="M150.18 556.543c-.027-.39.286-.184.442-.252a.027.027 0 0 1 .04.016.6.6 0 0 1-.482.236z" class="cls-2" data-name="Path 1256" transform="translate(-130.699 -526.231)"/>
                <path id="Path_1257" fill="#eb8ba0" d="M405.441 515.122h-.056v-1.225c0-.075-.027-.163.059-.216a7.194 7.194 0 0 1-.003 1.441z" data-name="Path 1257" transform="translate(-321.75 -494.334)"/>
                <path id="Path_1258" fill="#004b75" d="M405.625 515.062v-1.442a.189.189 0 0 1 .052-.02l.014 1.465z" data-name="Path 1258" transform="translate(-321.935 -494.273)"/>
                <path id="Path_1259" d="M408.7 511.969l-1.449-.025a.327.327 0 0 1 .031-.049 5.883 5.883 0 0 1 1.434.005z" class="cls-46" data-name="Path 1259" transform="translate(-323.154 -492.966)"/>
                <path id="Path_1260" fill="#2171ad" d="M393.637 511.964h-1.446l.06-.059a12.442 12.442 0 0 1 1.354-.022.052.052 0 0 1 .032.081z" data-name="Path 1260" transform="translate(-311.878 -492.978)"/>
                <path id="Path_1261" fill="#eb899f" d="M408.813 511.8l-1.434-.005c.219-.133.458-.047.687-.06.246-.013.493 0 .74 0z" data-name="Path 1261" transform="translate(-323.248 -492.863)"/>
                <path id="Path_1262" d="M405.879 489.559l-.012-.018c.478-.066.96 0 1.439-.04a4.054 4.054 0 0 1-1.036.051c-.13.011-.261.006-.391.007z" class="cls-49" data-name="Path 1262" transform="translate(-322.116 -476.233)"/>
                <path id="Path_1263" fill="#637fae" d="M397.875 508.158v-.062c-.021-.011-.028-.023-.023-.037s.012-.021.018-.021c.06-.415-.039-.838.054-1.252l.015 1.322-.015.1z" data-name="Path 1263" transform="translate(-316.116 -489.173)"/>
                <path id="Path_1264" d="M147.678 488.8l-.085.012c.028-.242-.191-.367-.265-.56.315.06.38.275.35.548z" class="cls-2" data-name="Path 1264" transform="translate(-128.565 -475.3)"/>
                <path id="Path_1265" fill="#1e72ab" d="M450.526 504.589v1.183c0 .1.023.2-.057.281q0-.731-.007-1.463z" data-name="Path 1265" transform="translate(-355.501 -487.527)"/>
                <path id="Path_1266" fill="#e9a8bf" d="M393.812 511.731a.164.164 0 0 1 .005.058h-1.388a2.86 2.86 0 0 1 .936-.055c.148-.014.298-.003.447-.003z" data-name="Path 1266" transform="translate(-312.056 -492.866)"/>
                <path id="Path_1267" d="M228.781 487.982h-1.317a.061.061 0 0 1-.006-.056 5.008 5.008 0 0 1 1.294 0z" class="cls-46" data-name="Path 1267" transform="translate(-188.55 -475.024)"/>
                <path id="Path_1268" fill="#eb8ba2" d="M228.764 487.811h-1.294a2.6 2.6 0 0 1 1.294 0z" data-name="Path 1268" transform="translate(-188.562 -474.906)"/>
                <path id="Path_1269" d="M148.777 552.036a.931.931 0 0 1-.025-.642.9.9 0 0 1 .092.394c-.018.085.023.184-.067.248z" class="cls-2" data-name="Path 1269" transform="translate(-129.598 -522.568)"/>
                <path id="Path_1270" fill="#b83930" d="M443.51 490.117a.308.308 0 0 1-.226.381.292.292 0 0 1 .226-.381z" data-name="Path 1270" transform="translate(-350.12 -476.693)"/>
                <path id="Path_1271" d="M148.3 562.113c-.163-.167-.21-.329.023-.477z" class="cls-2" data-name="Path 1271" transform="translate(-129.189 -530.235)"/>
                <path id="Path_1272" d="M235.053 585.774a.437.437 0 0 1 0 .057 2.64 2.64 0 0 0-.834-.056.955.955 0 0 1 .834-.001z" class="cls-23" data-name="Path 1272" transform="translate(-193.612 -548.233)"/>
                <path id="Path_1273" fill="#fcd3ba" d="M450.573 483.007c-.03.128.06.292-.112.377.013-.133-.107-.305.112-.377z" data-name="Path 1273" transform="translate(-355.485 -471.37)"/>
                <path id="Path_1274" fill="#ea7a32" d="M442.793 547.126c.024-.129-.1-.3.1-.379-.028.127.122.303-.1.379z" data-name="Path 1274" transform="translate(-349.749 -519.088)"/>
                <path id="Path_1275" fill="#d06f5d" d="M413.147 490.649a.407.407 0 0 1-.108.37c.023-.127-.109-.299.108-.37z" data-name="Path 1275" transform="translate(-327.471 -477.091)"/>
                <path id="Path_1276" fill="#c34c3e" d="M471.1 504.2c.034-.155.156-.1.253-.1-.024.182-.153.1-.253.1z" data-name="Path 1276" transform="translate(-370.951 -487.156)"/>
                <path id="Path_1277" d="M399.4 489.235v.108l-.236.016c.015-.167.143-.115.236-.124z" class="cls-49" data-name="Path 1277" transform="translate(-317.098 -476.032)"/>
                <path id="Path_1278" d="M148.958 561.232c-.047-.21.123-.073.182-.114a.146.146 0 0 1-.077.135z" class="cls-2" data-name="Path 1278" transform="translate(-129.779 -529.842)"/>
                <path id="Path_1279" fill="#716995" d="M478.772 526.753a.311.311 0 0 1 .25-.1c-.048.113-.147.112-.25.1z" data-name="Path 1279" transform="translate(-376.695 -504.041)"/>
                <path id="Path_1280" fill="#008abb" d="M207.693 604.3c.122-.01.137.069.137.162-.085-.02-.115-.088-.137-.162z" data-name="Path 1280" transform="translate(-173.757 -562.174)"/>
                <path id="Path_1281" d="M183.774 530.825a16.149 16.149 0 0 1 .117-2.806 2.984 2.984 0 0 1 1.955-2.591 3.014 3.014 0 0 1 4.093 2.026 6.353 6.353 0 0 1-.117 3.951 2.674 2.674 0 0 1-2.648 1.839c-1.043.024-2.088 0-3.132.008-.211 0-.275-.064-.271-.274.011-.678.003-1.365.003-2.153z" class="cls-1" data-name="Path 1281" transform="translate(-155.846 -502.985)"/>
                <path id="Path_1282" d="M144.516 490.691v18.265a.34.34 0 0 1-.047 0c-.009 0-.022 0-.025-.008a.519.519 0 0 1-.03-.294v-17.858a.113.113 0 0 1 .017-.056.121.121 0 0 1 .042-.039.13.13 0 0 1 .043-.01z" class="cls-2" data-name="Path 1282" transform="translate(-126.379 -477.123)"/>
                <ellipse id="Ellipse_291" cx=".033" cy="10.143" class="cls-2" data-name="Ellipse 291" rx=".033" ry="10.143" transform="translate(18.779 10.391)"/>
                <path id="Path_1283" d="M143.586 563.65c-.067.279.142.491.124.759-.005.083-.007.168-.121.167s-.118-.086-.119-.169v-.742z" class="cls-2" data-name="Path 1283" transform="translate(-125.677 -531.742)"/>
                <path id="Path_1284" d="M147.358 562.514a3.9 3.9 0 0 1 .019 1.177 2.131 2.131 0 0 1-.019-1.177z" class="cls-2" data-name="Path 1284" transform="translate(-128.535 -530.892)"/>
                <path id="Path_1285" d="M149.626 560.474c.222-.241.222-.241.5-.2a.67.67 0 0 1-.5.2z" class="cls-2" data-name="Path 1285" transform="translate(-130.286 -529.201)"/>
                <path id="Path_1286" d="M142.509 564.016v-.482c.229.148.092.359.094.545z" class="cls-2" data-name="Path 1286" transform="translate(-124.958 -531.656)"/>
                <path id="Path_1287" d="M146.941 559.512c-.114.047-.09.232-.241.241.011-.088-.107-.185.009-.264a.158.158 0 0 1 .232.023z" class="cls-2" data-name="Path 1287" transform="translate(-128.063 -528.597)"/>
                <path id="Path_1288" d="M145.968 489.26c.068 0 .117.023.124.1.011.106-.053.14-.145.136-.036 0-.1.039-.09-.057.012-.081-.003-.168.111-.179z" class="cls-2" data-name="Path 1288" transform="translate(-127.463 -476.052)"/>
                <path id="Path_1289" d="M142.471 488.655c.043-.117-.119-.3.12-.355-.04.118.095.3-.12.355z" class="cls-2" data-name="Path 1289" transform="translate(-124.919 -475.333)"/>
                <path id="Path_1290" d="M151.431 561.19c-.093.122-.174.063-.291.064.094-.132.177-.111.291-.064z" class="cls-2" data-name="Path 1290" transform="translate(-131.419 -529.874)"/>
                <path id="Path_1291" d="M149.845 557.442c0 .044.049.1-.036.114-.061.007-.083-.04-.087-.093s.014-.129.087-.127.005.078.036.106z" class="cls-2" data-name="Path 1291" transform="translate(-130.358 -527.016)"/>
                <path id="Path_1292" d="M144.194 488.291h.3c-.101.209-.201.121-.3 0z" class="cls-2" data-name="Path 1292" transform="translate(-126.219 -475.326)"/>
                <path id="Path_1293" d="M152.714 560.724a.084.084 0 0 1 .1-.045c.037 0 .088.008.075.064s-.056.049-.1.045-.081-.006-.075-.064z" class="cls-2" data-name="Path 1293" transform="translate(-132.597 -529.518)"/>
                <path id="Path_1294" d="M150.264 559.292c.068-.1.152-.06.221-.072a.2.2 0 0 1-.014.055c-.052.087-.119.074-.207.017z" class="cls-2" data-name="Path 1294" transform="translate(-130.763 -528.426)"/>
                <path id="Path_1295" d="M143.468 488.3h.062c.021.068.1.135 0 .208-.098-.044-.047-.136-.062-.208z" class="cls-2" data-name="Path 1295" transform="translate(-125.675 -475.334)"/>
                <path id="Path_1296" d="M148.417 555.087c-.062-.009-.119-.024-.109-.1.008-.062.061-.068.109-.076z" class="cls-2" data-name="Path 1296" transform="translate(-129.298 -525.196)"/>
                <path id="Path_1297" d="M149.78 555.622c-.012-.018-.036-.039-.038-.061s.01-.066.027-.072c.066-.024.047.03.048.063s.014.057-.037.07z" class="cls-2" data-name="Path 1297" transform="translate(-130.372 -525.628)"/>
                <path id="Path_1298" d="M340.3 604.594a3.939 3.939 0 0 1-.326 1.729 2.13 2.13 0 0 1-1.912 1.295 2.352 2.352 0 0 1-2.656-2.29 4.487 4.487 0 0 1 .283-2.5 2.393 2.393 0 0 1 4.293.012 4.036 4.036 0 0 1 .318 1.754z" class="cls-1" data-name="Path 1298" transform="translate(-269.319 -560.074)"/>
                <path id="Path_1299" d="M212.974 615.562a.128.128 0 0 0 0 .03c.168.761-.269 1.19-.848 1.54a2.611 2.611 0 0 1-1.985.369 1.11 1.11 0 0 1-.893-1.072 1.085 1.085 0 0 1 .578-1.1 4.589 4.589 0 0 1 1.856-.548c.347-.044.7-.055 1.047-.095.179-.02.261.02.248.218-.014.217-.003.438-.003.658z" class="cls-1" data-name="Path 1299" transform="translate(-174.915 -569.944)"/>
                <path id="Path_1300" d="M266.6 615.591a.6.6 0 0 0 0 .12 1.157 1.157 0 0 1-.593 1.226 2.876 2.876 0 0 1-2.024.6 1.173 1.173 0 0 1-1.089-.92 1.127 1.127 0 0 1 .531-1.293 4.5 4.5 0 0 1 1.824-.552c.366-.05.738-.065 1.106-.1.18-.019.258.037.247.229-.008.229-.002.46-.002.69z" class="cls-1" data-name="Path 1300" transform="translate(-215.055 -569.936)"/>
                <path id="Path_1301" d="M146.438 553.09a.806.806 0 0 0 .2.446.356.356 0 0 1 .067.252.814.814 0 0 1-.15-.006c-.1-.021-.2-.053-.208-.179-.006-.166 0-.332 0-.5z" class="cls-2" data-name="Path 1301" transform="translate(-127.832 -523.837)"/>
            </g>
        </g>
        <g id="Group_2341" data-name="Group 2341" transform="translate(43.848)">
            <text id="بإدارة" fill="#8b8b8b" font-family="JFFlat-Regular, JF Flat" font-size="10px" transform="translate(22.422 11.805)">
                <tspan x="-21.97" y="0">بإدارة</tspan>
            </text>
        </g>
    </g>
</svg>
